<mxfile host="app.diagrams.net" agent="Mozilla/5.0 (Macintosh; Intel Mac OS X 10_15_7) AppleWebKit/537.36 (KHTML, like Gecko) Chrome/128.0.0.0 Safari/537.36" version="24.7.13" pages="7">
  <diagram id="IKFlw1mRFdTqNN5aiGzr" name="overview">
    <mxGraphModel dx="1106" dy="997" grid="1" gridSize="10" guides="1" tooltips="1" connect="1" arrows="1" fold="1" page="1" pageScale="1" pageWidth="827" pageHeight="1169" math="0" shadow="0">
      <root>
        <mxCell id="0" />
        <mxCell id="1" parent="0" />
        <mxCell id="uvua9Fy_eSiFRQtInP-v-11" style="edgeStyle=orthogonalEdgeStyle;rounded=0;orthogonalLoop=1;jettySize=auto;html=1;exitX=0;exitY=0.5;exitDx=0;exitDy=0;entryX=0.5;entryY=0;entryDx=0;entryDy=0;fontSize=17;" parent="1" source="uvua9Fy_eSiFRQtInP-v-1" target="uvua9Fy_eSiFRQtInP-v-3" edge="1">
          <mxGeometry relative="1" as="geometry" />
        </mxCell>
        <mxCell id="uvua9Fy_eSiFRQtInP-v-12" style="edgeStyle=orthogonalEdgeStyle;rounded=0;orthogonalLoop=1;jettySize=auto;html=1;exitX=0.5;exitY=1;exitDx=0;exitDy=0;entryX=0.5;entryY=0;entryDx=0;entryDy=0;fontSize=17;" parent="1" source="uvua9Fy_eSiFRQtInP-v-1" target="uvua9Fy_eSiFRQtInP-v-4" edge="1">
          <mxGeometry relative="1" as="geometry" />
        </mxCell>
        <mxCell id="uvua9Fy_eSiFRQtInP-v-13" style="edgeStyle=orthogonalEdgeStyle;rounded=0;orthogonalLoop=1;jettySize=auto;html=1;exitX=1;exitY=0.5;exitDx=0;exitDy=0;entryX=0.5;entryY=0;entryDx=0;entryDy=0;fontSize=17;" parent="1" source="uvua9Fy_eSiFRQtInP-v-1" target="uvua9Fy_eSiFRQtInP-v-6" edge="1">
          <mxGeometry relative="1" as="geometry" />
        </mxCell>
        <mxCell id="uvua9Fy_eSiFRQtInP-v-1" value="backend" style="rounded=0;whiteSpace=wrap;html=1;fontSize=17;fillColor=#dae8fc;strokeColor=#6c8ebf;" parent="1" vertex="1">
          <mxGeometry x="339" y="440" width="150" height="50" as="geometry" />
        </mxCell>
        <mxCell id="uvua9Fy_eSiFRQtInP-v-2" value="blotDB" style="rounded=0;whiteSpace=wrap;html=1;fontSize=17;fillColor=#d5e8d4;strokeColor=#82b366;" parent="1" vertex="1">
          <mxGeometry x="339" y="740" width="150" height="50" as="geometry" />
        </mxCell>
        <mxCell id="uvua9Fy_eSiFRQtInP-v-8" style="edgeStyle=orthogonalEdgeStyle;rounded=0;orthogonalLoop=1;jettySize=auto;html=1;exitX=0.5;exitY=1;exitDx=0;exitDy=0;entryX=0;entryY=0.5;entryDx=0;entryDy=0;fontSize=17;" parent="1" source="uvua9Fy_eSiFRQtInP-v-3" target="uvua9Fy_eSiFRQtInP-v-2" edge="1">
          <mxGeometry relative="1" as="geometry" />
        </mxCell>
        <mxCell id="uvua9Fy_eSiFRQtInP-v-3" value="ReadTx" style="rounded=0;whiteSpace=wrap;html=1;fontSize=17;dashed=1;fillColor=#ffe6cc;strokeColor=#d79b00;" parent="1" vertex="1">
          <mxGeometry x="139" y="590" width="150" height="50" as="geometry" />
        </mxCell>
        <mxCell id="uvua9Fy_eSiFRQtInP-v-9" style="edgeStyle=orthogonalEdgeStyle;rounded=0;orthogonalLoop=1;jettySize=auto;html=1;exitX=0.5;exitY=1;exitDx=0;exitDy=0;entryX=0.5;entryY=0;entryDx=0;entryDy=0;fontSize=17;" parent="1" source="uvua9Fy_eSiFRQtInP-v-4" target="uvua9Fy_eSiFRQtInP-v-2" edge="1">
          <mxGeometry relative="1" as="geometry" />
        </mxCell>
        <mxCell id="uvua9Fy_eSiFRQtInP-v-4" value="BatchTx" style="rounded=0;whiteSpace=wrap;html=1;fontSize=17;dashed=1;fillColor=#ffe6cc;strokeColor=#d79b00;" parent="1" vertex="1">
          <mxGeometry x="339" y="590" width="150" height="50" as="geometry" />
        </mxCell>
        <mxCell id="uvua9Fy_eSiFRQtInP-v-10" style="edgeStyle=orthogonalEdgeStyle;rounded=0;orthogonalLoop=1;jettySize=auto;html=1;exitX=0.5;exitY=1;exitDx=0;exitDy=0;entryX=1;entryY=0.5;entryDx=0;entryDy=0;fontSize=17;" parent="1" source="uvua9Fy_eSiFRQtInP-v-6" target="uvua9Fy_eSiFRQtInP-v-2" edge="1">
          <mxGeometry relative="1" as="geometry" />
        </mxCell>
        <mxCell id="uvua9Fy_eSiFRQtInP-v-6" value="ConcurrentReadTx" style="rounded=0;whiteSpace=wrap;html=1;fontSize=17;dashed=1;fillColor=#ffe6cc;strokeColor=#d79b00;" parent="1" vertex="1">
          <mxGeometry x="539" y="590" width="150" height="50" as="geometry" />
        </mxCell>
      </root>
    </mxGraphModel>
  </diagram>
  <diagram id="l2aJB2iS0EYmzibM4k77" name="ReadTx">
    <mxGraphModel dx="1530" dy="1265" grid="1" gridSize="10" guides="1" tooltips="1" connect="1" arrows="1" fold="1" page="1" pageScale="1" pageWidth="827" pageHeight="1169" math="0" shadow="0">
      <root>
        <mxCell id="10otKA8jW5XwjT7WmcMC-0" />
        <mxCell id="10otKA8jW5XwjT7WmcMC-1" parent="10otKA8jW5XwjT7WmcMC-0" />
        <mxCell id="tbw4E4EHo-cR4woehvy0-1" style="edgeStyle=orthogonalEdgeStyle;rounded=0;orthogonalLoop=1;jettySize=auto;html=1;exitX=1;exitY=0.5;exitDx=0;exitDy=0;entryX=0;entryY=0.5;entryDx=0;entryDy=0;endArrow=open;endFill=0;fontSize=17;" parent="10otKA8jW5XwjT7WmcMC-1" source="dBvlySbztZkAS5eg7AWg-0" target="dBvlySbztZkAS5eg7AWg-1" edge="1">
          <mxGeometry relative="1" as="geometry" />
        </mxCell>
        <mxCell id="dBvlySbztZkAS5eg7AWg-0" value="backend" style="rounded=0;whiteSpace=wrap;html=1;fontSize=17;fillColor=#dae8fc;strokeColor=#6c8ebf;" parent="10otKA8jW5XwjT7WmcMC-1" vertex="1">
          <mxGeometry x="-750" y="390" width="120" height="50" as="geometry" />
        </mxCell>
        <mxCell id="dBvlySbztZkAS5eg7AWg-3" style="edgeStyle=orthogonalEdgeStyle;rounded=0;orthogonalLoop=1;jettySize=auto;html=1;exitX=1;exitY=0.5;exitDx=0;exitDy=0;entryX=0;entryY=0.5;entryDx=0;entryDy=0;fontSize=17;endArrow=open;endFill=0;" parent="10otKA8jW5XwjT7WmcMC-1" source="dBvlySbztZkAS5eg7AWg-1" target="dBvlySbztZkAS5eg7AWg-2" edge="1">
          <mxGeometry relative="1" as="geometry" />
        </mxCell>
        <mxCell id="dBvlySbztZkAS5eg7AWg-1" value="baseReadTx" style="rounded=0;whiteSpace=wrap;html=1;fontSize=17;fillColor=#dae8fc;strokeColor=#6c8ebf;" parent="10otKA8jW5XwjT7WmcMC-1" vertex="1">
          <mxGeometry x="-480" y="390" width="120" height="50" as="geometry" />
        </mxCell>
        <mxCell id="tbw4E4EHo-cR4woehvy0-0" style="edgeStyle=orthogonalEdgeStyle;rounded=0;orthogonalLoop=1;jettySize=auto;html=1;exitX=0.5;exitY=0;exitDx=0;exitDy=0;entryX=0.5;entryY=1;entryDx=0;entryDy=0;endArrow=block;endFill=0;fontSize=17;fillColor=#ffe6cc;strokeColor=#d79b00;" parent="10otKA8jW5XwjT7WmcMC-1" source="dBvlySbztZkAS5eg7AWg-2" target="dBvlySbztZkAS5eg7AWg-6" edge="1">
          <mxGeometry relative="1" as="geometry" />
        </mxCell>
        <mxCell id="dBvlySbztZkAS5eg7AWg-2" value="ReadTx" style="rounded=0;whiteSpace=wrap;html=1;fontSize=17;dashed=1;fillColor=#ffe6cc;strokeColor=#d79b00;" parent="10otKA8jW5XwjT7WmcMC-1" vertex="1">
          <mxGeometry x="-215" y="390" width="150" height="50" as="geometry" />
        </mxCell>
        <mxCell id="dBvlySbztZkAS5eg7AWg-6" value="ConcurrentTx" style="rounded=0;whiteSpace=wrap;html=1;dashed=1;fontSize=17;fillColor=#ffe6cc;strokeColor=#d79b00;" parent="10otKA8jW5XwjT7WmcMC-1" vertex="1">
          <mxGeometry x="-215" y="240" width="150" height="50" as="geometry" />
        </mxCell>
        <mxCell id="tbw4E4EHo-cR4woehvy0-3" style="edgeStyle=orthogonalEdgeStyle;rounded=0;orthogonalLoop=1;jettySize=auto;html=1;exitX=0.5;exitY=1;exitDx=0;exitDy=0;entryX=0.5;entryY=0;entryDx=0;entryDy=0;endArrow=open;endFill=0;fontSize=17;fillColor=#dae8fc;strokeColor=#6c8ebf;" parent="10otKA8jW5XwjT7WmcMC-1" source="tbw4E4EHo-cR4woehvy0-2" target="dBvlySbztZkAS5eg7AWg-1" edge="1">
          <mxGeometry relative="1" as="geometry" />
        </mxCell>
        <mxCell id="tbw4E4EHo-cR4woehvy0-4" style="edgeStyle=orthogonalEdgeStyle;rounded=0;orthogonalLoop=1;jettySize=auto;html=1;exitX=1;exitY=0.5;exitDx=0;exitDy=0;entryX=0;entryY=0.5;entryDx=0;entryDy=0;endArrow=open;endFill=0;fontSize=17;" parent="10otKA8jW5XwjT7WmcMC-1" source="tbw4E4EHo-cR4woehvy0-2" target="dBvlySbztZkAS5eg7AWg-6" edge="1">
          <mxGeometry relative="1" as="geometry" />
        </mxCell>
        <mxCell id="tbw4E4EHo-cR4woehvy0-2" value="concurrentTx" style="rounded=0;whiteSpace=wrap;html=1;fontSize=17;fillColor=#dae8fc;strokeColor=#6c8ebf;" parent="10otKA8jW5XwjT7WmcMC-1" vertex="1">
          <mxGeometry x="-480" y="240" width="120" height="50" as="geometry" />
        </mxCell>
        <mxCell id="tbw4E4EHo-cR4woehvy0-14" value="copy()" style="edgeStyle=orthogonalEdgeStyle;rounded=0;orthogonalLoop=1;jettySize=auto;html=1;exitX=0.25;exitY=0;exitDx=0;exitDy=0;entryX=0;entryY=0.5;entryDx=0;entryDy=0;endArrow=open;endFill=0;fontSize=15;fillColor=#e51400;fontColor=#F19C99;strokeColor=#F19C99;" parent="10otKA8jW5XwjT7WmcMC-1" source="tbw4E4EHo-cR4woehvy0-5" target="tbw4E4EHo-cR4woehvy0-2" edge="1">
          <mxGeometry relative="1" as="geometry" />
        </mxCell>
        <mxCell id="tbw4E4EHo-cR4woehvy0-24" style="edgeStyle=orthogonalEdgeStyle;rounded=0;orthogonalLoop=1;jettySize=auto;html=1;exitX=0;exitY=0.5;exitDx=0;exitDy=0;entryX=0;entryY=0.5;entryDx=0;entryDy=0;endArrow=open;endFill=0;fontSize=15;fontColor=#000000;" parent="10otKA8jW5XwjT7WmcMC-1" source="tbw4E4EHo-cR4woehvy0-5" target="tbw4E4EHo-cR4woehvy0-17" edge="1">
          <mxGeometry relative="1" as="geometry" />
        </mxCell>
        <mxCell id="tbw4E4EHo-cR4woehvy0-27" style="edgeStyle=orthogonalEdgeStyle;rounded=0;orthogonalLoop=1;jettySize=auto;html=1;exitX=1;exitY=0.25;exitDx=0;exitDy=0;entryX=0.25;entryY=1;entryDx=0;entryDy=0;endArrow=open;endFill=0;fontSize=15;fontColor=#000000;" parent="10otKA8jW5XwjT7WmcMC-1" source="tbw4E4EHo-cR4woehvy0-5" target="dBvlySbztZkAS5eg7AWg-1" edge="1">
          <mxGeometry relative="1" as="geometry" />
        </mxCell>
        <mxCell id="tbw4E4EHo-cR4woehvy0-28" value="not" style="edgeStyle=orthogonalEdgeStyle;rounded=0;orthogonalLoop=1;jettySize=auto;html=1;exitX=1;exitY=0.5;exitDx=0;exitDy=0;entryX=0;entryY=0.5;entryDx=0;entryDy=0;endArrow=open;endFill=0;fontSize=15;fontColor=#000000;" parent="10otKA8jW5XwjT7WmcMC-1" source="tbw4E4EHo-cR4woehvy0-5" target="tbw4E4EHo-cR4woehvy0-6" edge="1">
          <mxGeometry relative="1" as="geometry" />
        </mxCell>
        <mxCell id="tbw4E4EHo-cR4woehvy0-29" value="not find" style="edgeLabel;html=1;align=center;verticalAlign=middle;resizable=0;points=[];fontSize=15;fontColor=#000000;" parent="tbw4E4EHo-cR4woehvy0-28" vertex="1" connectable="0">
          <mxGeometry x="0.2533" y="-2" relative="1" as="geometry">
            <mxPoint x="-15" y="-2" as="offset" />
          </mxGeometry>
        </mxCell>
        <mxCell id="tbw4E4EHo-cR4woehvy0-5" value="txReadBuf" style="rounded=0;whiteSpace=wrap;html=1;fontSize=17;fillColor=#dae8fc;strokeColor=#6c8ebf;" parent="10otKA8jW5XwjT7WmcMC-1" vertex="1">
          <mxGeometry x="-600" y="520" width="120" height="50" as="geometry" />
        </mxCell>
        <mxCell id="tbw4E4EHo-cR4woehvy0-8" value="map" style="edgeStyle=orthogonalEdgeStyle;rounded=0;orthogonalLoop=1;jettySize=auto;html=1;exitX=1;exitY=0.5;exitDx=0;exitDy=0;entryX=0;entryY=0.5;entryDx=0;entryDy=0;endArrow=open;endFill=0;fontSize=15;" parent="10otKA8jW5XwjT7WmcMC-1" source="tbw4E4EHo-cR4woehvy0-6" target="tbw4E4EHo-cR4woehvy0-7" edge="1">
          <mxGeometry relative="1" as="geometry" />
        </mxCell>
        <mxCell id="tbw4E4EHo-cR4woehvy0-26" style="edgeStyle=orthogonalEdgeStyle;rounded=0;orthogonalLoop=1;jettySize=auto;html=1;exitX=0;exitY=0.25;exitDx=0;exitDy=0;entryX=0.75;entryY=1;entryDx=0;entryDy=0;endArrow=open;endFill=0;fontSize=15;fontColor=#000000;" parent="10otKA8jW5XwjT7WmcMC-1" source="tbw4E4EHo-cR4woehvy0-6" target="dBvlySbztZkAS5eg7AWg-1" edge="1">
          <mxGeometry relative="1" as="geometry" />
        </mxCell>
        <mxCell id="tbw4E4EHo-cR4woehvy0-6" value="" style="rounded=0;whiteSpace=wrap;html=1;fontSize=17;fillColor=#d5e8d4;strokeColor=#82b366;" parent="10otKA8jW5XwjT7WmcMC-1" vertex="1">
          <mxGeometry x="-360" y="520" width="40" height="50" as="geometry" />
        </mxCell>
        <mxCell id="tbw4E4EHo-cR4woehvy0-7" value="bucket" style="rounded=0;whiteSpace=wrap;html=1;fontSize=17;fillColor=#d5e8d4;strokeColor=#82b366;" parent="10otKA8jW5XwjT7WmcMC-1" vertex="1">
          <mxGeometry x="-215" y="520" width="120" height="50" as="geometry" />
        </mxCell>
        <mxCell id="tbw4E4EHo-cR4woehvy0-16" value="map" style="edgeStyle=orthogonalEdgeStyle;rounded=0;orthogonalLoop=1;jettySize=auto;html=1;exitX=1;exitY=0.5;exitDx=0;exitDy=0;entryX=0;entryY=0.5;entryDx=0;entryDy=0;endArrow=open;endFill=0;fontSize=15;" parent="10otKA8jW5XwjT7WmcMC-1" source="tbw4E4EHo-cR4woehvy0-17" target="tbw4E4EHo-cR4woehvy0-18" edge="1">
          <mxGeometry relative="1" as="geometry" />
        </mxCell>
        <mxCell id="tbw4E4EHo-cR4woehvy0-17" value="" style="rounded=0;whiteSpace=wrap;html=1;fontSize=17;fillColor=#d5e8d4;strokeColor=#82b366;" parent="10otKA8jW5XwjT7WmcMC-1" vertex="1">
          <mxGeometry x="-730" y="640" width="40" height="50" as="geometry" />
        </mxCell>
        <mxCell id="tbw4E4EHo-cR4woehvy0-18" value="bucketBuffer" style="rounded=0;whiteSpace=wrap;html=1;fontSize=17;fillColor=#dae8fc;strokeColor=#6c8ebf;" parent="10otKA8jW5XwjT7WmcMC-1" vertex="1">
          <mxGeometry x="-600" y="640" width="120" height="50" as="geometry" />
        </mxCell>
        <mxCell id="tbw4E4EHo-cR4woehvy0-19" value="kv" style="rounded=0;whiteSpace=wrap;html=1;fontSize=15;fillColor=#d5e8d4;strokeColor=#82b366;" parent="10otKA8jW5XwjT7WmcMC-1" vertex="1">
          <mxGeometry x="-620" y="750" width="40" height="50" as="geometry" />
        </mxCell>
        <mxCell id="tbw4E4EHo-cR4woehvy0-23" style="edgeStyle=orthogonalEdgeStyle;rounded=0;orthogonalLoop=1;jettySize=auto;html=1;exitX=1;exitY=0;exitDx=0;exitDy=0;entryX=0.5;entryY=1;entryDx=0;entryDy=0;endArrow=open;endFill=0;fontSize=15;fontColor=#000000;" parent="10otKA8jW5XwjT7WmcMC-1" source="tbw4E4EHo-cR4woehvy0-20" target="tbw4E4EHo-cR4woehvy0-18" edge="1">
          <mxGeometry relative="1" as="geometry" />
        </mxCell>
        <mxCell id="tbw4E4EHo-cR4woehvy0-20" value="" style="rounded=0;whiteSpace=wrap;html=1;fontSize=15;fillColor=#d5e8d4;strokeColor=#82b366;" parent="10otKA8jW5XwjT7WmcMC-1" vertex="1">
          <mxGeometry x="-580" y="750" width="40" height="50" as="geometry" />
        </mxCell>
        <mxCell id="tbw4E4EHo-cR4woehvy0-21" value="" style="rounded=0;whiteSpace=wrap;html=1;fontSize=15;fillColor=#d5e8d4;strokeColor=#82b366;" parent="10otKA8jW5XwjT7WmcMC-1" vertex="1">
          <mxGeometry x="-540" y="750" width="40" height="50" as="geometry" />
        </mxCell>
        <mxCell id="tbw4E4EHo-cR4woehvy0-22" value="" style="rounded=0;whiteSpace=wrap;html=1;fontSize=15;fillColor=#d5e8d4;strokeColor=#82b366;" parent="10otKA8jW5XwjT7WmcMC-1" vertex="1">
          <mxGeometry x="-500" y="750" width="40" height="50" as="geometry" />
        </mxCell>
      </root>
    </mxGraphModel>
  </diagram>
  <diagram id="-GRrBEv0HCHbe1iUBwGO" name="BatchTx">
    <mxGraphModel dx="1530" dy="2434" grid="1" gridSize="10" guides="1" tooltips="1" connect="1" arrows="1" fold="1" page="1" pageScale="1" pageWidth="827" pageHeight="1169" math="0" shadow="0">
      <root>
        <mxCell id="TR82psVHCPzTvochL53f-0" />
        <mxCell id="TR82psVHCPzTvochL53f-1" parent="TR82psVHCPzTvochL53f-0" />
        <mxCell id="LbuNN5EbKepXeYH7sn3l-2" style="edgeStyle=orthogonalEdgeStyle;orthogonalLoop=1;jettySize=auto;html=1;exitX=1;exitY=0.5;exitDx=0;exitDy=0;entryX=0;entryY=0.5;entryDx=0;entryDy=0;endArrow=open;endFill=0;fontSize=17;fontColor=#000000;fillColor=#dae8fc;strokeColor=#6c8ebf;" parent="TR82psVHCPzTvochL53f-1" source="LbuNN5EbKepXeYH7sn3l-0" target="LbuNN5EbKepXeYH7sn3l-1" edge="1">
          <mxGeometry relative="1" as="geometry" />
        </mxCell>
        <mxCell id="MA47EtOYVSZ1hksNIjGd-8" value="" style="edgeStyle=orthogonalEdgeStyle;rounded=0;orthogonalLoop=1;jettySize=auto;html=1;exitX=0.25;exitY=1;exitDx=0;exitDy=0;entryX=0;entryY=0.75;entryDx=0;entryDy=0;dashed=1;startArrow=none;startFill=0;endArrow=open;endFill=0;fontSize=15;fillColor=#f8cecc;strokeColor=#b85450;" parent="TR82psVHCPzTvochL53f-1" source="LbuNN5EbKepXeYH7sn3l-0" target="LbuNN5EbKepXeYH7sn3l-11" edge="1">
          <mxGeometry relative="1" as="geometry" />
        </mxCell>
        <mxCell id="MA47EtOYVSZ1hksNIjGd-25" value="V.Begin" style="edgeLabel;html=1;align=center;verticalAlign=middle;resizable=0;points=[];fontSize=15;fontColor=#F19C99;" parent="MA47EtOYVSZ1hksNIjGd-8" vertex="1" connectable="0">
          <mxGeometry x="0.3645" y="3" relative="1" as="geometry">
            <mxPoint as="offset" />
          </mxGeometry>
        </mxCell>
        <mxCell id="MA47EtOYVSZ1hksNIjGd-13" value="run" style="edgeStyle=orthogonalEdgeStyle;rounded=0;orthogonalLoop=1;jettySize=auto;html=1;exitX=0;exitY=0.5;exitDx=0;exitDy=0;entryX=0;entryY=0.75;entryDx=0;entryDy=0;dashed=1;startArrow=none;startFill=0;endArrow=open;endFill=0;fontSize=17;fontColor=#000000;" parent="TR82psVHCPzTvochL53f-1" source="LbuNN5EbKepXeYH7sn3l-0" target="MA47EtOYVSZ1hksNIjGd-1" edge="1">
          <mxGeometry relative="1" as="geometry" />
        </mxCell>
        <mxCell id="MA47EtOYVSZ1hksNIjGd-14" style="edgeStyle=orthogonalEdgeStyle;rounded=0;orthogonalLoop=1;jettySize=auto;html=1;exitX=0.5;exitY=0;exitDx=0;exitDy=0;entryX=0.5;entryY=1;entryDx=0;entryDy=0;startArrow=none;startFill=0;endArrow=open;endFill=0;fontSize=17;fontColor=#000000;fillColor=#dae8fc;strokeColor=#6c8ebf;" parent="TR82psVHCPzTvochL53f-1" source="LbuNN5EbKepXeYH7sn3l-0" target="MA47EtOYVSZ1hksNIjGd-12" edge="1">
          <mxGeometry relative="1" as="geometry" />
        </mxCell>
        <mxCell id="LbuNN5EbKepXeYH7sn3l-0" value="backend" style="whiteSpace=wrap;html=1;fontSize=17;fillColor=#dae8fc;strokeColor=#6c8ebf;" parent="TR82psVHCPzTvochL53f-1" vertex="1">
          <mxGeometry x="-618" y="80" width="140" height="50" as="geometry" />
        </mxCell>
        <mxCell id="LbuNN5EbKepXeYH7sn3l-4" style="edgeStyle=orthogonalEdgeStyle;orthogonalLoop=1;jettySize=auto;html=1;exitX=1;exitY=0.5;exitDx=0;exitDy=0;entryX=0;entryY=0.5;entryDx=0;entryDy=0;endArrow=open;endFill=0;fontSize=17;fontColor=#000000;" parent="TR82psVHCPzTvochL53f-1" source="LbuNN5EbKepXeYH7sn3l-1" target="LbuNN5EbKepXeYH7sn3l-3" edge="1">
          <mxGeometry relative="1" as="geometry" />
        </mxCell>
        <mxCell id="LbuNN5EbKepXeYH7sn3l-14" style="edgeStyle=orthogonalEdgeStyle;orthogonalLoop=1;jettySize=auto;html=1;exitX=0.75;exitY=1;exitDx=0;exitDy=0;entryX=0.5;entryY=0;entryDx=0;entryDy=0;endArrow=open;endFill=0;fontSize=17;fontColor=#000000;fillColor=#dae8fc;strokeColor=#6c8ebf;" parent="TR82psVHCPzTvochL53f-1" source="LbuNN5EbKepXeYH7sn3l-1" target="LbuNN5EbKepXeYH7sn3l-6" edge="1">
          <mxGeometry relative="1" as="geometry" />
        </mxCell>
        <mxCell id="MA47EtOYVSZ1hksNIjGd-16" value="II.wait" style="edgeStyle=orthogonalEdgeStyle;rounded=0;orthogonalLoop=1;jettySize=auto;html=1;exitX=0.25;exitY=0;exitDx=0;exitDy=0;entryX=1;entryY=0.75;entryDx=0;entryDy=0;startArrow=none;startFill=0;endArrow=open;endFill=0;fontSize=17;dashed=1;fillColor=#f8cecc;strokeColor=#b85450;fontColor=#F19C99;" parent="TR82psVHCPzTvochL53f-1" source="LbuNN5EbKepXeYH7sn3l-1" target="MA47EtOYVSZ1hksNIjGd-12" edge="1">
          <mxGeometry x="-0.52" relative="1" as="geometry">
            <mxPoint as="offset" />
          </mxGeometry>
        </mxCell>
        <mxCell id="MA47EtOYVSZ1hksNIjGd-18" style="edgeStyle=orthogonalEdgeStyle;rounded=0;orthogonalLoop=1;jettySize=auto;html=1;exitX=0.75;exitY=0;exitDx=0;exitDy=0;entryX=0;entryY=0.5;entryDx=0;entryDy=0;startArrow=none;startFill=0;endArrow=open;endFill=0;fontSize=17;fontColor=#F19C99;" parent="TR82psVHCPzTvochL53f-1" source="LbuNN5EbKepXeYH7sn3l-1" target="LbuNN5EbKepXeYH7sn3l-5" edge="1">
          <mxGeometry relative="1" as="geometry" />
        </mxCell>
        <mxCell id="LbuNN5EbKepXeYH7sn3l-1" value="batchTxBuffered" style="whiteSpace=wrap;html=1;fontSize=17;fillColor=#dae8fc;strokeColor=#6c8ebf;" parent="TR82psVHCPzTvochL53f-1" vertex="1">
          <mxGeometry x="-398" y="80" width="140" height="50" as="geometry" />
        </mxCell>
        <mxCell id="LbuNN5EbKepXeYH7sn3l-3" value="BatchTx" style="whiteSpace=wrap;html=1;fontSize=17;dashed=1;fillColor=#ffe6cc;strokeColor=#d79b00;" parent="TR82psVHCPzTvochL53f-1" vertex="1">
          <mxGeometry x="-168" y="80" width="140" height="50" as="geometry" />
        </mxCell>
        <mxCell id="LbuNN5EbKepXeYH7sn3l-12" style="edgeStyle=orthogonalEdgeStyle;orthogonalLoop=1;jettySize=auto;html=1;exitX=0.5;exitY=1;exitDx=0;exitDy=0;entryX=0.5;entryY=0;entryDx=0;entryDy=0;endArrow=open;endFill=0;fontSize=17;fontColor=#000000;" parent="TR82psVHCPzTvochL53f-1" source="LbuNN5EbKepXeYH7sn3l-6" target="LbuNN5EbKepXeYH7sn3l-11" edge="1">
          <mxGeometry relative="1" as="geometry" />
        </mxCell>
        <mxCell id="MA47EtOYVSZ1hksNIjGd-23" value="III.writeBack" style="edgeStyle=orthogonalEdgeStyle;rounded=0;orthogonalLoop=1;jettySize=auto;html=1;exitX=0.5;exitY=1;exitDx=0;exitDy=0;entryX=0.5;entryY=0;entryDx=0;entryDy=0;startArrow=none;startFill=0;endArrow=open;endFill=0;fontSize=17;fontColor=#F19C99;fillColor=#d5e8d4;strokeColor=#82b366;dashed=1;" parent="TR82psVHCPzTvochL53f-1" source="LbuNN5EbKepXeYH7sn3l-5" target="MA47EtOYVSZ1hksNIjGd-20" edge="1">
          <mxGeometry relative="1" as="geometry" />
        </mxCell>
        <mxCell id="LbuNN5EbKepXeYH7sn3l-5" value="txWriteBuffer" style="whiteSpace=wrap;html=1;fontSize=17;fillColor=#d5e8d4;strokeColor=#82b366;" parent="TR82psVHCPzTvochL53f-1" vertex="1">
          <mxGeometry x="-208" y="-200" width="120" height="50" as="geometry" />
        </mxCell>
        <mxCell id="LbuNN5EbKepXeYH7sn3l-7" style="edgeStyle=orthogonalEdgeStyle;orthogonalLoop=1;jettySize=auto;html=1;exitX=1;exitY=0.5;exitDx=0;exitDy=0;entryX=0.5;entryY=1;entryDx=0;entryDy=0;endArrow=open;endFill=0;fontSize=17;fontColor=#000000;rounded=0;" parent="TR82psVHCPzTvochL53f-1" source="LbuNN5EbKepXeYH7sn3l-6" target="LbuNN5EbKepXeYH7sn3l-3" edge="1">
          <mxGeometry relative="1" as="geometry" />
        </mxCell>
        <mxCell id="MA47EtOYVSZ1hksNIjGd-7" value="" style="edgeStyle=orthogonalEdgeStyle;rounded=0;orthogonalLoop=1;jettySize=auto;html=1;exitX=0;exitY=0.5;exitDx=0;exitDy=0;entryX=0;entryY=0.25;entryDx=0;entryDy=0;dashed=1;startArrow=none;startFill=0;endArrow=open;endFill=0;fontSize=15;fillColor=#f8cecc;strokeColor=#b85450;" parent="TR82psVHCPzTvochL53f-1" source="LbuNN5EbKepXeYH7sn3l-6" target="LbuNN5EbKepXeYH7sn3l-11" edge="1">
          <mxGeometry relative="1" as="geometry" />
        </mxCell>
        <mxCell id="MA47EtOYVSZ1hksNIjGd-24" value="VI.commit" style="edgeLabel;html=1;align=center;verticalAlign=middle;resizable=0;points=[];fontSize=15;fontColor=#F19C99;" parent="MA47EtOYVSZ1hksNIjGd-7" vertex="1" connectable="0">
          <mxGeometry x="0.1444" y="2" relative="1" as="geometry">
            <mxPoint x="-7" y="-23" as="offset" />
          </mxGeometry>
        </mxCell>
        <mxCell id="LbuNN5EbKepXeYH7sn3l-6" value="batchTx" style="whiteSpace=wrap;html=1;fontSize=17;fillColor=#dae8fc;strokeColor=#6c8ebf;" parent="TR82psVHCPzTvochL53f-1" vertex="1">
          <mxGeometry x="-353" y="190" width="120" height="50" as="geometry" />
        </mxCell>
        <mxCell id="LbuNN5EbKepXeYH7sn3l-11" value="bbolt.Tx" style="whiteSpace=wrap;html=1;strokeColor=#82b366;fontSize=17;fillColor=#d5e8d4;" parent="TR82psVHCPzTvochL53f-1" vertex="1">
          <mxGeometry x="-353" y="320" width="120" height="50" as="geometry" />
        </mxCell>
        <mxCell id="MA47EtOYVSZ1hksNIjGd-4" style="edgeStyle=orthogonalEdgeStyle;rounded=0;orthogonalLoop=1;jettySize=auto;html=1;exitX=0;exitY=0.5;exitDx=0;exitDy=0;entryX=1.005;entryY=0.54;entryDx=0;entryDy=0;entryPerimeter=0;startArrow=open;startFill=0;endArrow=none;endFill=0;fontSize=17;" parent="TR82psVHCPzTvochL53f-1" source="MA47EtOYVSZ1hksNIjGd-1" target="MA47EtOYVSZ1hksNIjGd-3" edge="1">
          <mxGeometry relative="1" as="geometry" />
        </mxCell>
        <mxCell id="MA47EtOYVSZ1hksNIjGd-6" value="I.commit" style="edgeStyle=orthogonalEdgeStyle;rounded=0;orthogonalLoop=1;jettySize=auto;html=1;exitX=1;exitY=0.5;exitDx=0;exitDy=0;entryX=0.5;entryY=0;entryDx=0;entryDy=0;dashed=1;startArrow=none;startFill=0;endArrow=open;endFill=0;fontSize=15;fillColor=#f8cecc;strokeColor=#b85450;fontColor=#F19C99;" parent="TR82psVHCPzTvochL53f-1" source="MA47EtOYVSZ1hksNIjGd-1" target="LbuNN5EbKepXeYH7sn3l-1" edge="1">
          <mxGeometry x="-0.2727" relative="1" as="geometry">
            <mxPoint as="offset" />
          </mxGeometry>
        </mxCell>
        <mxCell id="MA47EtOYVSZ1hksNIjGd-1" value="timer" style="shape=partialRectangle;whiteSpace=wrap;html=1;left=0;right=0;fillColor=#e1d5e7;fontSize=17;strokeColor=#9673a6;" parent="TR82psVHCPzTvochL53f-1" vertex="1">
          <mxGeometry x="-613" y="-200" width="120" height="50" as="geometry" />
        </mxCell>
        <mxCell id="MA47EtOYVSZ1hksNIjGd-3" value="batchInterval" style="text;html=1;align=center;verticalAlign=middle;resizable=0;points=[];autosize=1;fontSize=17;" parent="TR82psVHCPzTvochL53f-1" vertex="1">
          <mxGeometry x="-798" y="-191" width="110" height="30" as="geometry" />
        </mxCell>
        <mxCell id="MA47EtOYVSZ1hksNIjGd-19" style="edgeStyle=orthogonalEdgeStyle;rounded=0;orthogonalLoop=1;jettySize=auto;html=1;exitX=1;exitY=0.5;exitDx=0;exitDy=0;startArrow=none;startFill=0;endArrow=open;endFill=0;fontSize=17;fontColor=#F19C99;entryX=0;entryY=0.5;entryDx=0;entryDy=0;" parent="TR82psVHCPzTvochL53f-1" source="MA47EtOYVSZ1hksNIjGd-12" target="MA47EtOYVSZ1hksNIjGd-20" edge="1">
          <mxGeometry relative="1" as="geometry">
            <mxPoint x="-208" y="-45" as="targetPoint" />
          </mxGeometry>
        </mxCell>
        <mxCell id="MA47EtOYVSZ1hksNIjGd-12" value="readTx" style="rounded=0;whiteSpace=wrap;html=1;fontSize=17;fillColor=#dae8fc;strokeColor=#6c8ebf;" parent="TR82psVHCPzTvochL53f-1" vertex="1">
          <mxGeometry x="-608" y="-70" width="120" height="50" as="geometry" />
        </mxCell>
        <mxCell id="MA47EtOYVSZ1hksNIjGd-20" value="txReadBuffer" style="whiteSpace=wrap;html=1;fontSize=17;fillColor=#d5e8d4;strokeColor=#82b366;" parent="TR82psVHCPzTvochL53f-1" vertex="1">
          <mxGeometry x="-208" y="-70" width="120" height="50" as="geometry" />
        </mxCell>
      </root>
    </mxGraphModel>
  </diagram>
  <diagram id="kdA8s38dl0WHVDgFrQSd" name="foreach">
    <mxGraphModel dx="1933" dy="997" grid="1" gridSize="10" guides="1" tooltips="1" connect="1" arrows="1" fold="1" page="1" pageScale="1" pageWidth="827" pageHeight="1169" math="0" shadow="0">
      <root>
        <mxCell id="zX5VD7jxueS8j8OfiBo7-0" />
        <mxCell id="zX5VD7jxueS8j8OfiBo7-1" parent="zX5VD7jxueS8j8OfiBo7-0" />
        <mxCell id="CUryZhLv7shY-7wRl8Hh-8" value="" style="rounded=0;whiteSpace=wrap;html=1;strokeWidth=1;fontSize=16;dashed=1;fillColor=none;" parent="zX5VD7jxueS8j8OfiBo7-1" vertex="1">
          <mxGeometry x="14" y="470" width="450" height="218" as="geometry" />
        </mxCell>
        <mxCell id="CUryZhLv7shY-7wRl8Hh-10" value="" style="rounded=0;whiteSpace=wrap;html=1;strokeWidth=1;fontSize=16;dashed=1;fillColor=none;" parent="zX5VD7jxueS8j8OfiBo7-1" vertex="1">
          <mxGeometry x="-11" y="440" width="495" height="270" as="geometry" />
        </mxCell>
        <mxCell id="CUryZhLv7shY-7wRl8Hh-7" value="map" style="edgeStyle=orthogonalEdgeStyle;rounded=0;orthogonalLoop=1;jettySize=auto;html=1;exitX=1;exitY=0.5;exitDx=0;exitDy=0;entryX=0;entryY=0.5;entryDx=0;entryDy=0;fontSize=15;endArrow=open;endFill=0;" parent="zX5VD7jxueS8j8OfiBo7-1" source="CUryZhLv7shY-7wRl8Hh-0" target="CUryZhLv7shY-7wRl8Hh-5" edge="1">
          <mxGeometry relative="1" as="geometry" />
        </mxCell>
        <mxCell id="CUryZhLv7shY-7wRl8Hh-0" value="" style="rounded=0;whiteSpace=wrap;html=1;strokeWidth=1;fontSize=16;" parent="zX5VD7jxueS8j8OfiBo7-1" vertex="1">
          <mxGeometry x="34" y="557" width="60" height="48" as="geometry" />
        </mxCell>
        <mxCell id="CUryZhLv7shY-7wRl8Hh-1" value="Key" style="rounded=0;whiteSpace=wrap;html=1;strokeWidth=1;fontSize=16;" parent="zX5VD7jxueS8j8OfiBo7-1" vertex="1">
          <mxGeometry x="274" y="558" width="60" height="48" as="geometry" />
        </mxCell>
        <mxCell id="CUryZhLv7shY-7wRl8Hh-2" value="Val" style="rounded=0;whiteSpace=wrap;html=1;strokeWidth=1;fontSize=16;" parent="zX5VD7jxueS8j8OfiBo7-1" vertex="1">
          <mxGeometry x="334" y="558" width="60" height="48" as="geometry" />
        </mxCell>
        <mxCell id="CUryZhLv7shY-7wRl8Hh-3" value="" style="rounded=0;whiteSpace=wrap;html=1;strokeWidth=1;fontSize=16;dashed=1;fillColor=none;" parent="zX5VD7jxueS8j8OfiBo7-1" vertex="1">
          <mxGeometry x="254" y="538" width="160" height="90" as="geometry" />
        </mxCell>
        <mxCell id="CUryZhLv7shY-7wRl8Hh-4" value="kv" style="text;html=1;align=center;verticalAlign=middle;resizable=0;points=[];autosize=1;strokeColor=none;fillColor=none;fontSize=15;" parent="zX5VD7jxueS8j8OfiBo7-1" vertex="1">
          <mxGeometry x="254" y="518" width="30" height="20" as="geometry" />
        </mxCell>
        <mxCell id="CUryZhLv7shY-7wRl8Hh-20" value="I. ForEach" style="edgeStyle=orthogonalEdgeStyle;rounded=0;orthogonalLoop=1;jettySize=auto;html=1;exitX=1;exitY=0.5;exitDx=0;exitDy=0;entryX=0;entryY=0.5;entryDx=0;entryDy=0;fontSize=15;endArrow=open;endFill=0;dashed=1;strokeWidth=2;fontStyle=1;fontColor=#330033;" parent="zX5VD7jxueS8j8OfiBo7-1" source="CUryZhLv7shY-7wRl8Hh-5" target="CUryZhLv7shY-7wRl8Hh-18" edge="1">
          <mxGeometry relative="1" as="geometry" />
        </mxCell>
        <mxCell id="CUryZhLv7shY-7wRl8Hh-25" value="VI. Foreach" style="edgeStyle=orthogonalEdgeStyle;rounded=0;orthogonalLoop=1;jettySize=auto;html=1;exitX=0.5;exitY=0;exitDx=0;exitDy=0;entryX=0.5;entryY=0;entryDx=0;entryDy=0;fontSize=15;endArrow=open;endFill=0;strokeColor=#0000FF;dashed=1;strokeWidth=2;fontStyle=1;fontColor=#0000FF;" parent="zX5VD7jxueS8j8OfiBo7-1" source="CUryZhLv7shY-7wRl8Hh-5" target="CUryZhLv7shY-7wRl8Hh-23" edge="1">
          <mxGeometry relative="1" as="geometry" />
        </mxCell>
        <mxCell id="CUryZhLv7shY-7wRl8Hh-5" value="" style="rounded=0;whiteSpace=wrap;html=1;strokeWidth=1;fontSize=16;dashed=1;fillColor=none;" parent="zX5VD7jxueS8j8OfiBo7-1" vertex="1">
          <mxGeometry x="228" y="504" width="216" height="154" as="geometry" />
        </mxCell>
        <mxCell id="CUryZhLv7shY-7wRl8Hh-6" value="bucketBuffer" style="text;html=1;align=center;verticalAlign=middle;resizable=0;points=[];autosize=1;strokeColor=none;fillColor=none;fontSize=15;" parent="zX5VD7jxueS8j8OfiBo7-1" vertex="1">
          <mxGeometry x="228" y="484" width="100" height="20" as="geometry" />
        </mxCell>
        <mxCell id="CUryZhLv7shY-7wRl8Hh-9" value="txBuffer" style="text;html=1;align=center;verticalAlign=middle;resizable=0;points=[];autosize=1;strokeColor=none;fillColor=none;fontSize=15;" parent="zX5VD7jxueS8j8OfiBo7-1" vertex="1">
          <mxGeometry x="14" y="450" width="70" height="20" as="geometry" />
        </mxCell>
        <mxCell id="CUryZhLv7shY-7wRl8Hh-11" value="txReadBuffer" style="text;html=1;align=center;verticalAlign=middle;resizable=0;points=[];autosize=1;strokeColor=none;fillColor=none;fontSize=15;" parent="zX5VD7jxueS8j8OfiBo7-1" vertex="1">
          <mxGeometry x="-11" y="420" width="100" height="20" as="geometry" />
        </mxCell>
        <mxCell id="CUryZhLv7shY-7wRl8Hh-17" value="map" style="edgeStyle=orthogonalEdgeStyle;rounded=0;orthogonalLoop=1;jettySize=auto;html=1;exitX=1;exitY=0.5;exitDx=0;exitDy=0;entryX=0;entryY=0.5;entryDx=0;entryDy=0;fontSize=15;endArrow=open;endFill=0;" parent="zX5VD7jxueS8j8OfiBo7-1" source="CUryZhLv7shY-7wRl8Hh-15" target="CUryZhLv7shY-7wRl8Hh-16" edge="1">
          <mxGeometry relative="1" as="geometry" />
        </mxCell>
        <mxCell id="CUryZhLv7shY-7wRl8Hh-15" value="Key" style="rounded=0;whiteSpace=wrap;html=1;strokeWidth=1;fontSize=16;fillColor=none;" parent="zX5VD7jxueS8j8OfiBo7-1" vertex="1">
          <mxGeometry x="613" y="558" width="60" height="48" as="geometry" />
        </mxCell>
        <mxCell id="CUryZhLv7shY-7wRl8Hh-16" value="struct{}" style="rounded=0;whiteSpace=wrap;html=1;strokeWidth=1;fontSize=16;fillColor=none;" parent="zX5VD7jxueS8j8OfiBo7-1" vertex="1">
          <mxGeometry x="760" y="558" width="60" height="48" as="geometry" />
        </mxCell>
        <mxCell id="CUryZhLv7shY-7wRl8Hh-29" style="edgeStyle=orthogonalEdgeStyle;rounded=0;orthogonalLoop=1;jettySize=auto;html=1;exitX=0.5;exitY=0;exitDx=0;exitDy=0;entryX=0.5;entryY=1;entryDx=0;entryDy=0;dashed=1;fontSize=15;fontColor=#0000FF;endArrow=open;endFill=0;strokeColor=#FF0000;strokeWidth=2;" parent="zX5VD7jxueS8j8OfiBo7-1" source="CUryZhLv7shY-7wRl8Hh-18" target="CUryZhLv7shY-7wRl8Hh-23" edge="1">
          <mxGeometry relative="1" as="geometry" />
        </mxCell>
        <mxCell id="CUryZhLv7shY-7wRl8Hh-18" value="" style="rounded=0;whiteSpace=wrap;html=1;strokeWidth=1;fontSize=16;fillColor=none;dashed=1;" parent="zX5VD7jxueS8j8OfiBo7-1" vertex="1">
          <mxGeometry x="592" y="539" width="246" height="89" as="geometry" />
        </mxCell>
        <mxCell id="CUryZhLv7shY-7wRl8Hh-19" value="dups" style="text;html=1;align=center;verticalAlign=middle;resizable=0;points=[];autosize=1;strokeColor=none;fillColor=none;fontSize=15;" parent="zX5VD7jxueS8j8OfiBo7-1" vertex="1">
          <mxGeometry x="592" y="519" width="50" height="20" as="geometry" />
        </mxCell>
        <mxCell id="CUryZhLv7shY-7wRl8Hh-23" value="" style="rounded=0;whiteSpace=wrap;html=1;strokeWidth=1;fontSize=16;fillColor=none;dashed=1;" parent="zX5VD7jxueS8j8OfiBo7-1" vertex="1">
          <mxGeometry x="685" y="410" width="60" height="48" as="geometry" />
        </mxCell>
        <mxCell id="CUryZhLv7shY-7wRl8Hh-24" value="visitor" style="text;html=1;align=center;verticalAlign=middle;resizable=0;points=[];autosize=1;strokeColor=none;fillColor=none;fontSize=15;" parent="zX5VD7jxueS8j8OfiBo7-1" vertex="1">
          <mxGeometry x="636" y="424" width="50" height="20" as="geometry" />
        </mxCell>
        <mxCell id="CUryZhLv7shY-7wRl8Hh-28" value="III. Filter" style="edgeStyle=orthogonalEdgeStyle;rounded=0;orthogonalLoop=1;jettySize=auto;html=1;exitX=0.5;exitY=0;exitDx=0;exitDy=0;entryX=0.5;entryY=1;entryDx=0;entryDy=0;dashed=1;fontSize=15;fontColor=#FF0000;endArrow=open;endFill=0;strokeColor=#FF0000;strokeWidth=2;fontStyle=1" parent="zX5VD7jxueS8j8OfiBo7-1" source="CUryZhLv7shY-7wRl8Hh-26" target="CUryZhLv7shY-7wRl8Hh-18" edge="1">
          <mxGeometry relative="1" as="geometry" />
        </mxCell>
        <mxCell id="CUryZhLv7shY-7wRl8Hh-26" value="" style="rounded=0;whiteSpace=wrap;html=1;strokeWidth=1;fontSize=16;fillColor=none;dashed=1;" parent="zX5VD7jxueS8j8OfiBo7-1" vertex="1">
          <mxGeometry x="686" y="750" width="58" height="48" as="geometry" />
        </mxCell>
        <mxCell id="CUryZhLv7shY-7wRl8Hh-27" value="visitNoDup" style="text;html=1;align=center;verticalAlign=middle;resizable=0;points=[];autosize=1;strokeColor=none;fillColor=none;fontSize=15;" parent="zX5VD7jxueS8j8OfiBo7-1" vertex="1">
          <mxGeometry x="670" y="798" width="90" height="20" as="geometry" />
        </mxCell>
        <mxCell id="CUryZhLv7shY-7wRl8Hh-32" value="II. ForEach" style="edgeStyle=orthogonalEdgeStyle;rounded=0;orthogonalLoop=1;jettySize=auto;html=1;exitX=1;exitY=0.5;exitDx=0;exitDy=0;entryX=0;entryY=0.5;entryDx=0;entryDy=0;dashed=1;fontSize=15;fontColor=#FF0000;endArrow=open;endFill=0;strokeColor=#FF0000;strokeWidth=2;fontStyle=1" parent="zX5VD7jxueS8j8OfiBo7-1" source="CUryZhLv7shY-7wRl8Hh-30" target="CUryZhLv7shY-7wRl8Hh-26" edge="1">
          <mxGeometry relative="1" as="geometry" />
        </mxCell>
        <mxCell id="CUryZhLv7shY-7wRl8Hh-30" value="" style="rounded=0;whiteSpace=wrap;html=1;strokeWidth=1;fontSize=16;" parent="zX5VD7jxueS8j8OfiBo7-1" vertex="1">
          <mxGeometry x="209" y="750" width="60" height="48" as="geometry" />
        </mxCell>
        <mxCell id="CUryZhLv7shY-7wRl8Hh-31" value="blot.Tx" style="text;html=1;align=center;verticalAlign=middle;resizable=0;points=[];autosize=1;fontSize=15;" parent="zX5VD7jxueS8j8OfiBo7-1" vertex="1">
          <mxGeometry x="206.5" y="798" width="60" height="20" as="geometry" />
        </mxCell>
      </root>
    </mxGraphModel>
  </diagram>
  <diagram id="t0jUuHTWmHbBC1IxmOkW" name="range">
    <mxGraphModel dx="1749" dy="831" grid="1" gridSize="10" guides="1" tooltips="1" connect="1" arrows="1" fold="1" page="1" pageScale="1" pageWidth="827" pageHeight="1169" math="0" shadow="0">
      <root>
        <mxCell id="cdZU2yiF-cx2bOjJzx9e-0" />
        <mxCell id="cdZU2yiF-cx2bOjJzx9e-1" parent="cdZU2yiF-cx2bOjJzx9e-0" />
        <mxCell id="rvLrCUWXv82ioJ2ac9TU-3" value="VI. Range" style="edgeStyle=orthogonalEdgeStyle;rounded=0;orthogonalLoop=1;jettySize=auto;html=1;exitX=1;exitY=0.5;exitDx=0;exitDy=0;entryX=0;entryY=0.5;entryDx=0;entryDy=0;dashed=1;fontSize=15;fontColor=#0000FF;endArrow=open;endFill=0;strokeColor=#0000FF;strokeWidth=2;fontStyle=1" parent="cdZU2yiF-cx2bOjJzx9e-1" source="rvLrCUWXv82ioJ2ac9TU-0" target="l2IlnCtnVtEv3VKq6CrA-5" edge="1">
          <mxGeometry relative="1" as="geometry">
            <mxPoint x="414" y="536" as="targetPoint" />
          </mxGeometry>
        </mxCell>
        <mxCell id="rvLrCUWXv82ioJ2ac9TU-0" value="" style="rounded=0;whiteSpace=wrap;html=1;strokeWidth=1;fontSize=16;fontColor=#330033;fillColor=default;" parent="cdZU2yiF-cx2bOjJzx9e-1" vertex="1">
          <mxGeometry x="220" y="512" width="60" height="48" as="geometry" />
        </mxCell>
        <mxCell id="rvLrCUWXv82ioJ2ac9TU-1" value="txReadBuffer" style="text;html=1;align=center;verticalAlign=middle;resizable=0;points=[];autosize=1;strokeColor=none;fillColor=none;fontSize=15;fontColor=#330033;" parent="cdZU2yiF-cx2bOjJzx9e-1" vertex="1">
          <mxGeometry x="120" y="526" width="100" height="20" as="geometry" />
        </mxCell>
        <mxCell id="l2IlnCtnVtEv3VKq6CrA-0" value="map" style="edgeStyle=orthogonalEdgeStyle;rounded=0;orthogonalLoop=1;jettySize=auto;html=1;exitX=1;exitY=0.5;exitDx=0;exitDy=0;entryX=0;entryY=0.5;entryDx=0;entryDy=0;fontSize=15;fontColor=default;endArrow=open;endFill=0;strokeColor=default;strokeWidth=1;" parent="cdZU2yiF-cx2bOjJzx9e-1" source="rvLrCUWXv82ioJ2ac9TU-4" target="rvLrCUWXv82ioJ2ac9TU-15" edge="1">
          <mxGeometry relative="1" as="geometry" />
        </mxCell>
        <mxCell id="rvLrCUWXv82ioJ2ac9TU-4" value="" style="rounded=0;whiteSpace=wrap;html=1;strokeWidth=1;fontSize=16;fontColor=#330033;fillColor=default;" parent="cdZU2yiF-cx2bOjJzx9e-1" vertex="1">
          <mxGeometry x="220" y="640" width="60" height="48" as="geometry" />
        </mxCell>
        <mxCell id="rvLrCUWXv82ioJ2ac9TU-5" value="BucketID" style="text;html=1;align=center;verticalAlign=middle;resizable=0;points=[];autosize=1;fontSize=15;" parent="cdZU2yiF-cx2bOjJzx9e-1" vertex="1">
          <mxGeometry x="210" y="688" width="80" height="20" as="geometry" />
        </mxCell>
        <mxCell id="rvLrCUWXv82ioJ2ac9TU-16" style="edgeStyle=orthogonalEdgeStyle;rounded=0;orthogonalLoop=1;jettySize=auto;html=1;exitX=0.5;exitY=0;exitDx=0;exitDy=0;entryX=0.5;entryY=1;entryDx=0;entryDy=0;fontSize=15;fontColor=#FF0000;endArrow=open;endFill=0;strokeColor=#FF0000;strokeWidth=2;dashed=1;" parent="cdZU2yiF-cx2bOjJzx9e-1" source="rvLrCUWXv82ioJ2ac9TU-6" target="rvLrCUWXv82ioJ2ac9TU-15" edge="1">
          <mxGeometry relative="1" as="geometry" />
        </mxCell>
        <mxCell id="l2IlnCtnVtEv3VKq6CrA-2" value="II. Cursor" style="edgeStyle=orthogonalEdgeStyle;rounded=0;orthogonalLoop=1;jettySize=auto;html=1;exitX=1;exitY=0.5;exitDx=0;exitDy=0;dashed=1;fontSize=15;fontColor=#FF0000;endArrow=open;endFill=0;strokeColor=#FF0000;strokeWidth=2;entryX=0;entryY=0.5;entryDx=0;entryDy=0;fontStyle=1;" parent="cdZU2yiF-cx2bOjJzx9e-1" source="rvLrCUWXv82ioJ2ac9TU-6" target="l2IlnCtnVtEv3VKq6CrA-3" edge="1">
          <mxGeometry relative="1" as="geometry">
            <mxPoint x="590" y="794" as="targetPoint" />
          </mxGeometry>
        </mxCell>
        <mxCell id="rvLrCUWXv82ioJ2ac9TU-6" value="" style="rounded=0;whiteSpace=wrap;html=1;strokeWidth=1;fontSize=16;fontColor=#330033;fillColor=default;" parent="cdZU2yiF-cx2bOjJzx9e-1" vertex="1">
          <mxGeometry x="414" y="770" width="60" height="48" as="geometry" />
        </mxCell>
        <mxCell id="rvLrCUWXv82ioJ2ac9TU-7" value="bolt.Tx" style="text;html=1;align=center;verticalAlign=middle;resizable=0;points=[];autosize=1;fontSize=15;" parent="cdZU2yiF-cx2bOjJzx9e-1" vertex="1">
          <mxGeometry x="414" y="818" width="60" height="20" as="geometry" />
        </mxCell>
        <mxCell id="rvLrCUWXv82ioJ2ac9TU-10" value="ID" style="edgeStyle=orthogonalEdgeStyle;rounded=0;orthogonalLoop=1;jettySize=auto;html=1;exitX=0.5;exitY=0;exitDx=0;exitDy=0;entryX=0;entryY=0.5;entryDx=0;entryDy=0;fontSize=15;fontColor=default;endArrow=open;endFill=0;strokeWidth=1;" parent="cdZU2yiF-cx2bOjJzx9e-1" source="rvLrCUWXv82ioJ2ac9TU-8" target="rvLrCUWXv82ioJ2ac9TU-4" edge="1">
          <mxGeometry x="0.2045" relative="1" as="geometry">
            <mxPoint as="offset" />
          </mxGeometry>
        </mxCell>
        <mxCell id="rvLrCUWXv82ioJ2ac9TU-12" value="Name" style="edgeStyle=orthogonalEdgeStyle;rounded=0;orthogonalLoop=1;jettySize=auto;html=1;exitX=0.5;exitY=1;exitDx=0;exitDy=0;entryX=0;entryY=0.5;entryDx=0;entryDy=0;fontSize=15;fontColor=default;endArrow=open;endFill=0;strokeColor=default;strokeWidth=1;" parent="cdZU2yiF-cx2bOjJzx9e-1" source="rvLrCUWXv82ioJ2ac9TU-8" target="rvLrCUWXv82ioJ2ac9TU-11" edge="1">
          <mxGeometry x="0.2473" relative="1" as="geometry">
            <mxPoint as="offset" />
          </mxGeometry>
        </mxCell>
        <mxCell id="rvLrCUWXv82ioJ2ac9TU-8" value="" style="rounded=0;whiteSpace=wrap;html=1;strokeWidth=1;fontSize=16;fontColor=#330033;fillColor=default;dashed=1;" parent="cdZU2yiF-cx2bOjJzx9e-1" vertex="1">
          <mxGeometry x="50" y="700" width="60" height="48" as="geometry" />
        </mxCell>
        <mxCell id="rvLrCUWXv82ioJ2ac9TU-9" value="Bucket" style="text;html=1;align=center;verticalAlign=middle;resizable=0;points=[];autosize=1;fontSize=15;" parent="cdZU2yiF-cx2bOjJzx9e-1" vertex="1">
          <mxGeometry x="-10" y="714" width="60" height="20" as="geometry" />
        </mxCell>
        <mxCell id="rvLrCUWXv82ioJ2ac9TU-14" value="I. Bucket" style="edgeStyle=orthogonalEdgeStyle;rounded=0;orthogonalLoop=1;jettySize=auto;html=1;exitX=1;exitY=0.5;exitDx=0;exitDy=0;entryX=0;entryY=0.5;entryDx=0;entryDy=0;fontSize=15;fontColor=#FF0000;endArrow=open;endFill=0;strokeColor=#FF0000;strokeWidth=2;dashed=1;fontStyle=1;" parent="cdZU2yiF-cx2bOjJzx9e-1" source="rvLrCUWXv82ioJ2ac9TU-11" target="rvLrCUWXv82ioJ2ac9TU-6" edge="1">
          <mxGeometry relative="1" as="geometry" />
        </mxCell>
        <mxCell id="rvLrCUWXv82ioJ2ac9TU-11" value="" style="rounded=0;whiteSpace=wrap;html=1;strokeWidth=1;fontSize=16;fontColor=#330033;fillColor=default;" parent="cdZU2yiF-cx2bOjJzx9e-1" vertex="1">
          <mxGeometry x="220" y="770" width="60" height="48" as="geometry" />
        </mxCell>
        <mxCell id="rvLrCUWXv82ioJ2ac9TU-13" value="BucketName" style="text;html=1;align=center;verticalAlign=middle;resizable=0;points=[];autosize=1;strokeColor=none;fillColor=none;fontSize=15;fontColor=default;" parent="cdZU2yiF-cx2bOjJzx9e-1" vertex="1">
          <mxGeometry x="200" y="818" width="100" height="20" as="geometry" />
        </mxCell>
        <mxCell id="rvLrCUWXv82ioJ2ac9TU-15" value="" style="rounded=0;whiteSpace=wrap;html=1;strokeWidth=1;fontSize=16;fontColor=#330033;fillColor=default;" parent="cdZU2yiF-cx2bOjJzx9e-1" vertex="1">
          <mxGeometry x="414" y="640" width="60" height="48" as="geometry" />
        </mxCell>
        <mxCell id="l2IlnCtnVtEv3VKq6CrA-1" value="Bucket" style="text;html=1;align=center;verticalAlign=middle;resizable=0;points=[];autosize=1;strokeColor=none;fillColor=none;fontSize=15;fontColor=default;" parent="cdZU2yiF-cx2bOjJzx9e-1" vertex="1">
          <mxGeometry x="474" y="654" width="60" height="20" as="geometry" />
        </mxCell>
        <mxCell id="l2IlnCtnVtEv3VKq6CrA-3" value="" style="rounded=0;whiteSpace=wrap;html=1;strokeWidth=1;fontSize=16;fontColor=#330033;fillColor=default;" parent="cdZU2yiF-cx2bOjJzx9e-1" vertex="1">
          <mxGeometry x="610" y="770" width="60" height="48" as="geometry" />
        </mxCell>
        <mxCell id="l2IlnCtnVtEv3VKq6CrA-5" value="" style="rounded=0;whiteSpace=wrap;html=1;strokeWidth=1;fontSize=16;fontColor=#330033;fillColor=default;" parent="cdZU2yiF-cx2bOjJzx9e-1" vertex="1">
          <mxGeometry x="580" y="512" width="60" height="48" as="geometry" />
        </mxCell>
        <mxCell id="m_CgMTHpXZF44WKu6WED-2" value="III. Seek" style="edgeStyle=orthogonalEdgeStyle;rounded=0;orthogonalLoop=1;jettySize=auto;html=1;exitX=0.5;exitY=0;exitDx=0;exitDy=0;dashed=1;fontSize=15;fontColor=#FF0000;endArrow=open;endFill=0;strokeColor=#FF0000;strokeWidth=2;entryX=1;entryY=1;entryDx=0;entryDy=0;fontStyle=1;" parent="cdZU2yiF-cx2bOjJzx9e-1" target="l2IlnCtnVtEv3VKq6CrA-5" edge="1">
          <mxGeometry relative="1" as="geometry">
            <mxPoint x="640" y="560" as="targetPoint" />
            <mxPoint x="640" y="770" as="sourcePoint" />
          </mxGeometry>
        </mxCell>
        <mxCell id="m_CgMTHpXZF44WKu6WED-4" value="" style="rounded=0;whiteSpace=wrap;html=1;strokeWidth=1;fontSize=16;fontColor=#330033;fillColor=default;" parent="cdZU2yiF-cx2bOjJzx9e-1" vertex="1">
          <mxGeometry x="640" y="512" width="60" height="48" as="geometry" />
        </mxCell>
        <mxCell id="m_CgMTHpXZF44WKu6WED-6" value="keys" style="text;html=1;align=center;verticalAlign=middle;resizable=0;points=[];autosize=1;fontSize=15;" parent="cdZU2yiF-cx2bOjJzx9e-1" vertex="1">
          <mxGeometry x="585" y="492" width="50" height="20" as="geometry" />
        </mxCell>
        <mxCell id="m_CgMTHpXZF44WKu6WED-7" value="values" style="text;html=1;align=center;verticalAlign=middle;resizable=0;points=[];autosize=1;fontSize=15;" parent="cdZU2yiF-cx2bOjJzx9e-1" vertex="1">
          <mxGeometry x="640" y="492" width="60" height="20" as="geometry" />
        </mxCell>
      </root>
    </mxGraphModel>
  </diagram>
  <diagram id="u9m-O1Xhv1tTm8CuCN91" name="第 5 页">
    <mxGraphModel dx="1530" dy="1265" grid="1" gridSize="10" guides="1" tooltips="1" connect="1" arrows="1" fold="1" page="1" pageScale="1" pageWidth="827" pageHeight="1169" math="0" shadow="0">
      <root>
        <mxCell id="rQ_dL1P_WhSPIANZKupZ-0" />
        <mxCell id="rQ_dL1P_WhSPIANZKupZ-1" parent="rQ_dL1P_WhSPIANZKupZ-0" />
        <mxCell id="rQ_dL1P_WhSPIANZKupZ-2" value="" style="rounded=0;whiteSpace=wrap;html=1;strokeWidth=1;fontSize=16;dashed=1;fillColor=none;" parent="rQ_dL1P_WhSPIANZKupZ-1" vertex="1">
          <mxGeometry x="430" y="410" width="60" height="48" as="geometry" />
        </mxCell>
        <mxCell id="rQ_dL1P_WhSPIANZKupZ-3" value="BatchTx" style="text;html=1;align=center;verticalAlign=middle;resizable=0;points=[];autosize=1;strokeColor=none;fillColor=none;fontSize=15;" parent="rQ_dL1P_WhSPIANZKupZ-1" vertex="1">
          <mxGeometry x="490" y="424" width="70" height="20" as="geometry" />
        </mxCell>
        <mxCell id="rQ_dL1P_WhSPIANZKupZ-6" style="edgeStyle=orthogonalEdgeStyle;rounded=0;orthogonalLoop=1;jettySize=auto;html=1;exitX=1;exitY=0.5;exitDx=0;exitDy=0;entryX=0;entryY=0.5;entryDx=0;entryDy=0;fontSize=15;endArrow=block;endFill=0;" parent="rQ_dL1P_WhSPIANZKupZ-1" source="rQ_dL1P_WhSPIANZKupZ-4" target="rQ_dL1P_WhSPIANZKupZ-2" edge="1">
          <mxGeometry relative="1" as="geometry" />
        </mxCell>
        <mxCell id="rQ_dL1P_WhSPIANZKupZ-9" value="tx" style="edgeStyle=orthogonalEdgeStyle;rounded=0;orthogonalLoop=1;jettySize=auto;html=1;exitX=0.5;exitY=1;exitDx=0;exitDy=0;entryX=0.5;entryY=0;entryDx=0;entryDy=0;fontSize=15;endArrow=open;endFill=0;" parent="rQ_dL1P_WhSPIANZKupZ-1" source="rQ_dL1P_WhSPIANZKupZ-4" target="rQ_dL1P_WhSPIANZKupZ-7" edge="1">
          <mxGeometry relative="1" as="geometry" />
        </mxCell>
        <mxCell id="qjrW5qgxCJ7fSt1JbOuR-5" style="edgeStyle=orthogonalEdgeStyle;rounded=0;orthogonalLoop=1;jettySize=auto;html=1;exitX=0.5;exitY=0;exitDx=0;exitDy=0;entryX=0.5;entryY=1;entryDx=0;entryDy=0;fontSize=15;endArrow=block;endFill=1;" parent="rQ_dL1P_WhSPIANZKupZ-1" source="rQ_dL1P_WhSPIANZKupZ-4" target="qjrW5qgxCJ7fSt1JbOuR-0" edge="1">
          <mxGeometry relative="1" as="geometry" />
        </mxCell>
        <mxCell id="LQLbjN4bRhE1LgWcTP_0-4" style="edgeStyle=orthogonalEdgeStyle;rounded=0;orthogonalLoop=1;jettySize=auto;html=1;exitX=0;exitY=0.5;exitDx=0;exitDy=0;entryX=1;entryY=0.5;entryDx=0;entryDy=0;dashed=1;fontSize=15;fontColor=#FF0000;endArrow=open;endFill=0;strokeColor=#FF0000;strokeWidth=2;" edge="1" parent="rQ_dL1P_WhSPIANZKupZ-1" source="rQ_dL1P_WhSPIANZKupZ-4" target="m0DrekuT-lz-JeSotfTG-0">
          <mxGeometry relative="1" as="geometry" />
        </mxCell>
        <mxCell id="rQ_dL1P_WhSPIANZKupZ-4" value="" style="rounded=0;whiteSpace=wrap;html=1;strokeWidth=1;fontSize=16;fillColor=none;" parent="rQ_dL1P_WhSPIANZKupZ-1" vertex="1">
          <mxGeometry x="230" y="410" width="60" height="48" as="geometry" />
        </mxCell>
        <mxCell id="rQ_dL1P_WhSPIANZKupZ-5" value="batchTx" style="text;html=1;align=center;verticalAlign=middle;resizable=0;points=[];autosize=1;strokeColor=none;fillColor=none;fontSize=15;" parent="rQ_dL1P_WhSPIANZKupZ-1" vertex="1">
          <mxGeometry x="165" y="390" width="70" height="20" as="geometry" />
        </mxCell>
        <mxCell id="rQ_dL1P_WhSPIANZKupZ-7" value="" style="rounded=0;whiteSpace=wrap;html=1;strokeWidth=1;fontSize=16;fillColor=none;" parent="rQ_dL1P_WhSPIANZKupZ-1" vertex="1">
          <mxGeometry x="230" y="585" width="60" height="48" as="geometry" />
        </mxCell>
        <mxCell id="rQ_dL1P_WhSPIANZKupZ-10" value="bolt.Tx" style="text;html=1;align=center;verticalAlign=middle;resizable=0;points=[];autosize=1;strokeColor=none;fillColor=none;fontSize=15;" parent="rQ_dL1P_WhSPIANZKupZ-1" vertex="1">
          <mxGeometry x="170" y="599" width="60" height="20" as="geometry" />
        </mxCell>
        <mxCell id="qjrW5qgxCJ7fSt1JbOuR-7" style="edgeStyle=orthogonalEdgeStyle;rounded=0;orthogonalLoop=1;jettySize=auto;html=1;exitX=1;exitY=0.5;exitDx=0;exitDy=0;entryX=0.5;entryY=0;entryDx=0;entryDy=0;fontSize=15;endArrow=block;endFill=0;" parent="rQ_dL1P_WhSPIANZKupZ-1" source="qjrW5qgxCJ7fSt1JbOuR-0" target="rQ_dL1P_WhSPIANZKupZ-2" edge="1">
          <mxGeometry relative="1" as="geometry" />
        </mxCell>
        <mxCell id="m0DrekuT-lz-JeSotfTG-3" value="buf" style="edgeStyle=orthogonalEdgeStyle;rounded=0;orthogonalLoop=1;jettySize=auto;html=1;exitX=0;exitY=0.5;exitDx=0;exitDy=0;entryX=0.5;entryY=0;entryDx=0;entryDy=0;fontSize=15;endArrow=open;endFill=0;" edge="1" parent="rQ_dL1P_WhSPIANZKupZ-1" source="qjrW5qgxCJ7fSt1JbOuR-0" target="m0DrekuT-lz-JeSotfTG-0">
          <mxGeometry relative="1" as="geometry" />
        </mxCell>
        <mxCell id="qjrW5qgxCJ7fSt1JbOuR-0" value="" style="rounded=0;whiteSpace=wrap;html=1;strokeWidth=1;fontSize=16;fillColor=none;" parent="rQ_dL1P_WhSPIANZKupZ-1" vertex="1">
          <mxGeometry x="230" y="250" width="60" height="48" as="geometry" />
        </mxCell>
        <mxCell id="qjrW5qgxCJ7fSt1JbOuR-4" style="edgeStyle=orthogonalEdgeStyle;rounded=0;orthogonalLoop=1;jettySize=auto;html=1;exitX=0.5;exitY=0;exitDx=0;exitDy=0;entryX=0.5;entryY=1;entryDx=0;entryDy=0;fontSize=15;endArrow=block;endFill=1;" parent="rQ_dL1P_WhSPIANZKupZ-1" source="qjrW5qgxCJ7fSt1JbOuR-1" target="rQ_dL1P_WhSPIANZKupZ-2" edge="1">
          <mxGeometry relative="1" as="geometry" />
        </mxCell>
        <mxCell id="qjrW5qgxCJ7fSt1JbOuR-1" value="" style="rounded=0;whiteSpace=wrap;html=1;strokeWidth=1;fontSize=16;dashed=1;fillColor=none;" parent="rQ_dL1P_WhSPIANZKupZ-1" vertex="1">
          <mxGeometry x="430" y="585" width="60" height="48" as="geometry" />
        </mxCell>
        <mxCell id="qjrW5qgxCJ7fSt1JbOuR-3" value="ReadTx" style="text;html=1;align=center;verticalAlign=middle;resizable=0;points=[];autosize=1;strokeColor=none;fillColor=none;fontSize=15;" parent="rQ_dL1P_WhSPIANZKupZ-1" vertex="1">
          <mxGeometry x="490" y="600" width="70" height="20" as="geometry" />
        </mxCell>
        <mxCell id="qjrW5qgxCJ7fSt1JbOuR-6" value="batchTxBuffered" style="text;html=1;align=center;verticalAlign=middle;resizable=0;points=[];autosize=1;strokeColor=none;fillColor=none;fontSize=15;" parent="rQ_dL1P_WhSPIANZKupZ-1" vertex="1">
          <mxGeometry x="195" y="230" width="130" height="20" as="geometry" />
        </mxCell>
        <mxCell id="m0DrekuT-lz-JeSotfTG-0" value="" style="rounded=0;whiteSpace=wrap;html=1;strokeWidth=1;fontSize=16;fillColor=none;" vertex="1" parent="rQ_dL1P_WhSPIANZKupZ-1">
          <mxGeometry x="30" y="410" width="60" height="48" as="geometry" />
        </mxCell>
        <mxCell id="m0DrekuT-lz-JeSotfTG-1" value="txWriteBuffer" style="text;html=1;align=center;verticalAlign=middle;resizable=0;points=[];autosize=1;strokeColor=none;fillColor=none;fontSize=15;" vertex="1" parent="rQ_dL1P_WhSPIANZKupZ-1">
          <mxGeometry x="-50" y="390" width="100" height="20" as="geometry" />
        </mxCell>
        <mxCell id="72P_CElBNRueL9VFnaFX-1" style="edgeStyle=orthogonalEdgeStyle;rounded=0;orthogonalLoop=1;jettySize=auto;html=1;exitX=0.5;exitY=0;exitDx=0;exitDy=0;entryX=0.5;entryY=1;entryDx=0;entryDy=0;fontSize=15;endArrow=block;endFill=0;" edge="1" parent="rQ_dL1P_WhSPIANZKupZ-1" source="72P_CElBNRueL9VFnaFX-0" target="qjrW5qgxCJ7fSt1JbOuR-1">
          <mxGeometry relative="1" as="geometry" />
        </mxCell>
        <mxCell id="72P_CElBNRueL9VFnaFX-4" value="buf" style="edgeStyle=orthogonalEdgeStyle;rounded=0;orthogonalLoop=1;jettySize=auto;html=1;exitX=0;exitY=0.5;exitDx=0;exitDy=0;entryX=1;entryY=0.5;entryDx=0;entryDy=0;fontSize=15;endArrow=open;endFill=0;" edge="1" parent="rQ_dL1P_WhSPIANZKupZ-1" source="72P_CElBNRueL9VFnaFX-0" target="72P_CElBNRueL9VFnaFX-3">
          <mxGeometry relative="1" as="geometry" />
        </mxCell>
        <mxCell id="72P_CElBNRueL9VFnaFX-0" value="" style="rounded=0;whiteSpace=wrap;html=1;strokeWidth=1;fontSize=16;fillColor=none;" vertex="1" parent="rQ_dL1P_WhSPIANZKupZ-1">
          <mxGeometry x="430" y="740" width="60" height="48" as="geometry" />
        </mxCell>
        <mxCell id="72P_CElBNRueL9VFnaFX-2" value="readTx" style="text;html=1;align=center;verticalAlign=middle;resizable=0;points=[];autosize=1;strokeColor=none;fillColor=none;fontSize=15;" vertex="1" parent="rQ_dL1P_WhSPIANZKupZ-1">
          <mxGeometry x="490" y="754" width="60" height="20" as="geometry" />
        </mxCell>
        <mxCell id="72P_CElBNRueL9VFnaFX-3" value="" style="rounded=0;whiteSpace=wrap;html=1;strokeWidth=1;fontSize=16;fillColor=none;" vertex="1" parent="rQ_dL1P_WhSPIANZKupZ-1">
          <mxGeometry x="30" y="740" width="60" height="48" as="geometry" />
        </mxCell>
        <mxCell id="72P_CElBNRueL9VFnaFX-5" value="txReadBuffer" style="text;html=1;align=center;verticalAlign=middle;resizable=0;points=[];autosize=1;strokeColor=none;fillColor=none;fontSize=15;" vertex="1" parent="rQ_dL1P_WhSPIANZKupZ-1">
          <mxGeometry x="-70" y="754" width="100" height="20" as="geometry" />
        </mxCell>
        <mxCell id="LQLbjN4bRhE1LgWcTP_0-2" value="" style="edgeStyle=orthogonalEdgeStyle;rounded=0;orthogonalLoop=1;jettySize=auto;html=1;dashed=1;fontSize=15;fontColor=#FF0000;endArrow=open;endFill=0;strokeColor=#FF0000;strokeWidth=2;entryX=0.25;entryY=1;entryDx=0;entryDy=0;" edge="1" parent="rQ_dL1P_WhSPIANZKupZ-1" source="LQLbjN4bRhE1LgWcTP_0-0" target="rQ_dL1P_WhSPIANZKupZ-4">
          <mxGeometry relative="1" as="geometry" />
        </mxCell>
        <mxCell id="LQLbjN4bRhE1LgWcTP_0-0" value="key value" style="text;html=1;align=center;verticalAlign=middle;resizable=0;points=[];autosize=1;strokeColor=none;fillColor=none;fontSize=15;fontColor=#FF0000;fontStyle=1" vertex="1" parent="rQ_dL1P_WhSPIANZKupZ-1">
          <mxGeometry x="130" y="510" width="80" height="20" as="geometry" />
        </mxCell>
      </root>
    </mxGraphModel>
  </diagram>
  <diagram id="K28uDFSAYt4eU66ah3lk" name="第 7 页">
    <mxGraphModel dx="1168" dy="887" grid="1" gridSize="10" guides="1" tooltips="1" connect="1" arrows="1" fold="1" page="1" pageScale="1" pageWidth="827" pageHeight="1169" math="0" shadow="0">
      <root>
        <mxCell id="0" />
        <mxCell id="1" parent="0" />
        <mxCell id="Dol-z5jXYCsh6bHjNldh-2" style="edgeStyle=orthogonalEdgeStyle;rounded=0;orthogonalLoop=1;jettySize=auto;html=1;exitX=0.5;exitY=1;exitDx=0;exitDy=0;entryX=0.5;entryY=0;entryDx=0;entryDy=0;endArrow=open;endFill=0;" edge="1" parent="1" source="BtP3bkYQyP4L1SHBNIsB-2" target="BtP3bkYQyP4L1SHBNIsB-4">
          <mxGeometry relative="1" as="geometry" />
        </mxCell>
        <mxCell id="BtP3bkYQyP4L1SHBNIsB-2" value="DB" style="rounded=0;whiteSpace=wrap;html=1;fontSize=16;" vertex="1" parent="1">
          <mxGeometry x="340" y="430" width="140" height="50" as="geometry" />
        </mxCell>
        <mxCell id="BtP3bkYQyP4L1SHBNIsB-3" value="blot" style="text;html=1;align=center;verticalAlign=middle;resizable=0;points=[];autosize=1;strokeColor=none;fillColor=none;" vertex="1" parent="1">
          <mxGeometry x="340" y="400" width="40" height="30" as="geometry" />
        </mxCell>
        <mxCell id="Dol-z5jXYCsh6bHjNldh-1" style="edgeStyle=orthogonalEdgeStyle;rounded=0;orthogonalLoop=1;jettySize=auto;html=1;exitX=0.5;exitY=1;exitDx=0;exitDy=0;entryX=0.5;entryY=0;entryDx=0;entryDy=0;endArrow=block;endFill=1;" edge="1" parent="1" source="BtP3bkYQyP4L1SHBNIsB-4" target="BtP3bkYQyP4L1SHBNIsB-5">
          <mxGeometry relative="1" as="geometry" />
        </mxCell>
        <mxCell id="BtP3bkYQyP4L1SHBNIsB-4" value="backend" style="rounded=0;whiteSpace=wrap;html=1;fontSize=16;" vertex="1" parent="1">
          <mxGeometry x="340" y="570" width="140" height="50" as="geometry" />
        </mxCell>
        <mxCell id="BtP3bkYQyP4L1SHBNIsB-5" value="Backend" style="rounded=0;whiteSpace=wrap;html=1;fontSize=16;dashed=1;" vertex="1" parent="1">
          <mxGeometry x="340" y="710" width="140" height="50" as="geometry" />
        </mxCell>
      </root>
    </mxGraphModel>
  </diagram>
</mxfile>
